<svg width="500" height="487" viewBox="0 0 500 487" fill="none" xmlns="http://www.w3.org/2000/svg">
<path d="M25.8165 54.37V33.99C25.8165 16.68 45.8065 1.53 61.9365 0.0400009L463.807 0C480.047 1.34 493.997 12.75 498.257 28.47C500.377 168.63 498.576 309.13 499.156 449.42C497.186 468.41 482.937 484.08 463.797 486.28H61.1865C42.8765 483.61 27.2565 468.15 25.7965 449.46L25.8265 191.31C25.3365 188.69 17.7565 188.19 18.2865 183.12L0.0565255 64.78C-0.103475 61.14 -0.183469 57.72 3.61653 56.13L25.8165 54.38V54.37ZM472.547 35.24C471.877 34.75 471.087 34.48 470.247 34.48C465.527 34.48 456.147 34.94 451.637 35.8C450.407 36.04 449.687 36.53 449.307 37.76L431.227 151.99L432.427 153.67L451.167 152.96L454.047 134.17L469.146 133.03L471.966 151.31L488.797 150.89L491.216 148.96L472.557 35.24H472.547ZM426.237 152.69V39C425.197 37.54 423.247 37.85 421.567 37.89C416.817 38 411.007 38.83 406.217 39.36V155.2H420.877C421.587 155.2 423.976 153.97 425.406 154.37C425.536 153.81 426.177 153.08 426.237 152.69ZM382.617 136.6V42.57C382.617 42.21 380.717 41.03 380.027 40.99L362.377 42.2C361.187 42.48 361.187 45.8 361.127 46.83C359.347 78.12 359.807 118.39 361.137 149.87C361.247 152.46 361.777 154.94 361.857 157.53C362.247 158.84 371.677 158.17 373.697 158.08C378.447 157.87 383.907 156.96 388.687 156.63C391.177 156.46 396.997 157.4 398.397 155.62C400.467 153 398.577 139.75 398.947 135.99C394.007 135.33 387.567 135.61 382.597 136.6H382.617ZM290.377 124.45V46.87C289.747 45.85 288.947 45.88 287.907 45.76C286.007 45.54 269.097 46.44 268.207 46.87C267.627 47.15 267.217 47.85 266.867 48.39L243.177 126.24V147.69C245.157 149.42 249.417 148.89 252.147 148.79C257.587 148.6 263.657 147.32 269.177 147.43L270.047 148.79L270.347 166.63L289.697 165.61L290.677 146.57C292.197 144.39 298.947 148.48 299.697 142.72C299.947 140.8 299.857 125.85 299.357 125.12L290.377 124.45ZM183.127 79.04C182.647 83.77 183.127 89.85 183.127 94.77C183.127 97.49 188.627 95.83 189.887 95.81C193.397 95.75 202.467 96.54 204.987 94.47C208.397 91.66 202.277 76.43 210.267 73.98C215.317 72.43 216.487 78.87 216.757 82.59C217.657 94.96 213.017 103.62 207.287 113.94C204.257 119.41 183.117 151.1 183.117 153.41V171.29C183.117 171.59 184.807 173.16 185.567 173.02L235.557 169.39C236.207 169.16 237.457 167.39 237.457 167V150.55C236.827 149.53 236.027 149.56 234.987 149.44C227.267 148.53 218.127 150.85 210.277 150.54C217.627 136.39 226.947 123.17 233.287 108.48C244.407 82.72 245.347 47.76 207.757 50.77C192.047 52.03 184.597 64.41 183.117 79.04H183.127ZM138.077 147.69V55.45C137.627 54.74 137.087 54.52 136.287 54.38C133.597 53.89 126.467 54.19 123.427 54.38C122.027 54.47 116.437 54.95 115.667 55.2C114.617 55.54 114.197 56.78 113.927 57.75C114.947 86.05 112.027 116.02 113.737 144.14C115.067 165.95 124.067 177.47 147.047 175.96C162.207 174.96 170.087 169.4 174.557 154.85C175.427 152.03 177.407 144.55 177.407 141.97V53.31C177.407 50.16 169.337 52.18 167.747 52.23C164.917 52.32 156.327 51.28 155.357 54.14L155.197 146.22C153.777 155.42 139.647 157.15 138.087 147.7L138.077 147.69ZM110.097 55.89L89.0965 56.52L87.1165 58.12L78.0065 135.89L68.9065 60.27C67.4265 57.01 61.8965 59.32 59.0965 59.42C56.7565 59.5 47.7565 58.8 46.7065 60.26L38.6865 139.47L29.7665 61.53C28.3565 58.56 20.8965 60.69 18.3165 60.81C15.7365 60.93 6.82653 60.15 5.39653 62.22L24.3765 183.47L47.6265 182.36L50.4665 180.19L58.0265 116.6L65.8065 180.53C72.4365 180.59 84.2465 181.2 90.4065 179.37C91.1165 179.16 91.5765 178.66 91.9765 178.08L110.127 55.91L110.097 55.89ZM305.397 104.07V118.37C307.987 120.14 313.167 119.58 316.507 119.47C321.677 119.31 327.707 118.37 332.927 118.02C338.147 117.67 342.877 118.2 347.817 117.18L349.007 116.22V101.2C346.867 98.76 343.367 100.74 340.777 100.83C330.807 101.18 318.217 100.94 308.577 102.23C307.497 102.38 305.707 102.94 305.397 104.05V104.07ZM165.777 182.54C142.407 186.55 151.617 228.07 174.577 217.07C192.437 208.52 185.887 179.08 165.777 182.54ZM116.627 274.61C124.317 272.55 131.977 266.53 134.847 258.86C138.147 250.04 137.437 222.13 134.127 213.12C125.357 189.23 97.6765 194 77.6565 195.24C70.0565 195.71 62.3665 196.83 54.7565 197.37C49.2565 197.76 39.1765 195.01 38.6365 202.7L38.9965 369.03C39.9565 371.57 42.2465 371.97 44.7565 371.91C59.5765 371.56 77.7365 369.76 92.6565 368.27C137.017 363.85 142.937 345.91 140.237 303.53C139.227 287.7 133.277 279.54 117.687 276.02C116.587 275.77 116.437 276.52 116.607 274.61H116.627ZM443.966 206.89C419.606 208.65 402.637 219.73 400.507 245.66C399.127 262.46 399.337 290.22 400.467 307.17C402.727 341.05 425.587 346.12 455.007 340.91C475.157 337.34 487.546 323.24 489.156 302.84C490.346 287.78 490.997 246.14 487.987 232.53C482.837 209.26 465.197 205.36 443.977 206.89H443.966ZM354.737 336.1V358.62C354.737 358.9 353.247 363.39 352.957 363.99C349.937 370.29 338.337 372.18 335.277 365.92C331.567 358.33 334.477 357.12 323.637 357.55C318.887 357.74 307.977 358.62 303.647 359.73C297.907 361.21 300.797 371.89 302.167 376.14C308.777 396.58 330.877 395.99 348.637 394C374.087 391.15 388.096 379.36 389.786 352.92C392.616 308.7 387.577 261.52 389.797 216.99C390.137 213.71 387.287 212.32 384.397 212.32L358.077 213.96C354.947 214.9 355.457 223.82 355.427 226.69C350.557 221.36 347.117 217.38 339.727 215.58C323.297 211.58 306.117 219.15 300.027 235.28C294.817 249.07 295.817 296.42 296.767 312.89C297.707 329.14 303.607 346.52 322.197 348.24C334.747 349.4 347.297 346.95 354.717 336.1H354.737ZM231.757 234.56C231.797 232.18 231.787 225.2 230.037 223.76L228.517 223.14L202.127 224.59C200.167 224.84 198.757 225.97 198.307 227.92L198.677 357.38C199.407 359.27 201.057 359.04 202.807 359.04C211.287 359 220.627 356.71 229.237 356.82L232.317 354.18L232.477 260.67C232.057 247.54 249.627 243.51 253.137 256.43L253.527 351.86C254.497 354.32 255.427 354.5 257.807 354.73C261.907 355.12 273.167 353.77 277.867 353.25C281.507 352.85 288.017 353.02 288.277 348.64C286.617 317.04 290.367 283.4 288.277 252.04C286.987 232.8 276.217 217.11 255.077 219.61C245.657 220.73 237.547 227.55 231.767 234.55L231.757 234.56ZM176.537 226.91C169.377 227.2 162.207 228.13 155.027 228.28C152.867 228.88 151.317 230.58 150.987 232.82L150.907 357.23C150.837 359.37 151.757 362.07 154.177 362.54C162.057 361.57 170.587 361.9 178.387 361.03C180.967 360.74 184.677 360.26 185.257 357.17L184.747 228.29C183.487 225.59 179.057 226.8 176.547 226.9L176.537 226.91Z" fill="#813D9A"/>
<path d="M116.626 274.61C116.446 276.51 116.596 275.77 117.706 276.02C133.296 279.55 139.247 287.7 140.257 303.53C142.957 345.91 137.036 363.84 92.6765 368.27C77.7465 369.76 59.5965 371.55 44.7765 371.91C42.2665 371.97 39.9665 371.57 39.0165 369.03L38.6565 202.7C39.1965 195.02 49.2765 197.77 54.7765 197.37C62.3765 196.83 70.0765 195.71 77.6765 195.24C97.6965 194 125.376 189.24 134.146 213.12C137.456 222.13 138.167 250.04 134.867 258.86C131.997 266.53 124.326 272.55 116.646 274.61H116.626ZM75.8665 265.31C90.3165 263.6 100.966 263.27 100.936 245.65C100.936 242.89 100.447 235.52 99.8665 233.09C97.7765 224.23 82.5965 227.75 75.8665 228.13V265.31ZM75.8665 336.82C82.4165 336.59 94.0265 337.1 99.1165 332.54C104.437 327.78 103.906 307.17 101.466 300.86C97.5565 290.76 83.8965 296.6 75.8765 295.35V336.82H75.8665Z" fill="#FFDC4C"/>
<path d="M354.736 336.1C347.306 346.95 334.756 349.41 322.216 348.24C303.626 346.52 297.726 329.14 296.786 312.89C295.836 296.42 294.836 249.07 300.046 235.28C306.136 219.16 323.316 211.58 339.746 215.58C347.136 217.38 350.576 221.36 355.446 226.69C355.476 223.82 354.976 214.9 358.096 213.96L384.416 212.32C387.306 212.32 390.156 213.71 389.816 216.99C387.596 261.52 392.636 308.7 389.806 352.92C388.116 379.36 374.096 391.14 348.656 394C330.886 395.99 308.786 396.58 302.186 376.14C300.816 371.89 297.916 361.2 303.666 359.73C307.996 358.62 318.906 357.74 323.656 357.55C334.496 357.12 331.576 358.32 335.296 365.92C338.356 372.19 349.956 370.29 352.976 363.99C353.266 363.39 354.756 358.9 354.756 358.62V336.1H354.736ZM341.666 241.88C337.616 242.72 333.916 246.53 333.346 250.72C334.146 269.88 332.256 289.35 332.846 308.45C333.126 317.61 336.146 321.41 345.806 320.37C351.096 319.8 354.056 315.75 354.666 310.64C356.836 292.27 353.206 270.15 354.746 251.37C353.806 244.01 349.146 240.33 341.676 241.88H341.666Z" fill="#FFDC4C"/>
<path d="M231.757 234.56C237.537 227.57 245.647 220.74 255.067 219.62C276.207 217.12 286.977 232.8 288.267 252.05C290.367 283.4 286.607 317.05 288.267 348.65C288.007 353.03 281.497 352.86 277.857 353.26C273.157 353.78 261.907 355.13 257.797 354.74C255.417 354.51 254.487 354.33 253.517 351.87L253.127 256.44C249.617 243.52 232.047 247.55 232.467 260.68L232.307 354.19L229.227 356.83C220.617 356.72 211.277 359.01 202.797 359.05C201.047 359.05 199.397 359.29 198.667 357.39L198.297 227.93C198.747 225.98 200.157 224.85 202.117 224.6L228.507 223.15L230.027 223.77C231.777 225.21 231.787 232.19 231.747 234.57L231.757 234.56Z" fill="#FFDC4C"/>
<path d="M443.966 206.89C465.186 205.36 482.826 209.26 487.976 232.53C490.986 246.14 490.336 287.78 489.146 302.84C487.536 323.24 475.147 337.34 454.997 340.91C425.577 346.12 402.727 341.05 400.457 307.17C399.327 290.22 399.117 262.46 400.497 245.66C402.627 219.73 419.597 208.64 443.957 206.89H443.966ZM444.656 235.42C435.746 236.65 435.217 244.75 434.747 252.09C433.887 265.4 433.327 292.07 434.887 304.92C435.317 308.49 436.707 312.6 440.507 313.6C448.277 315.64 454.156 311.51 454.856 303.6C456.556 284.29 453.577 262.44 454.767 242.86C454.397 237.76 449.536 234.75 444.656 235.43V235.42Z" fill="#FFDC4C"/>
<path d="M110.096 55.89L91.9465 178.06C91.5565 178.65 91.0864 179.14 90.3764 179.35C84.2064 181.18 72.3965 180.57 65.7765 180.51L57.9965 116.58L50.4364 180.17L47.5965 182.34L24.3465 183.45L5.36646 62.2C6.80646 60.13 15.5965 60.91 18.2865 60.79C20.9765 60.67 28.3365 58.53 29.7365 61.51L38.6564 139.45L46.6765 60.24C47.7265 58.77 56.7265 59.48 59.0665 59.4C61.8665 59.3 67.4064 56.99 68.8764 60.25L77.9765 135.87L87.0865 58.1L89.0665 56.5L110.066 55.87L110.096 55.89Z" fill="#FFDC4C"/>
<path d="M138.076 147.69C139.636 157.14 153.766 155.41 155.186 146.21L155.346 54.13C156.306 51.27 164.906 52.31 167.736 52.22C169.326 52.17 177.396 50.15 177.396 53.3V141.96C177.396 144.54 175.416 152.02 174.546 154.84C170.076 169.39 162.196 174.95 147.036 175.95C124.066 177.46 115.056 165.95 113.726 144.13C112.006 116.01 114.936 86.04 113.916 57.74C114.186 56.77 114.616 55.53 115.656 55.19C116.416 54.94 122.016 54.46 123.416 54.37C126.466 54.18 133.586 53.87 136.276 54.37C137.076 54.52 137.616 54.73 138.066 55.44V147.68L138.076 147.69Z" fill="#FFDC4C"/>
<path d="M176.537 226.91C179.057 226.81 183.477 225.6 184.737 228.3L185.247 357.18C184.667 360.27 180.967 360.75 178.377 361.04C170.587 361.91 162.057 361.58 154.167 362.55C151.757 362.08 150.837 359.38 150.897 357.24L150.977 232.83C151.307 230.59 152.857 228.9 155.017 228.29C162.197 228.14 169.367 227.21 176.527 226.92L176.537 226.91Z" fill="#FFDC4C"/>
<path d="M183.126 79.04C184.606 64.41 192.056 52.03 207.766 50.77C245.356 47.76 244.416 82.73 233.296 108.48C226.956 123.16 217.636 136.39 210.286 150.54C218.136 150.85 227.286 148.53 234.996 149.44C236.036 149.56 236.836 149.53 237.466 150.55V167C237.466 167.39 236.216 169.16 235.566 169.39L185.576 173.02C184.816 173.16 183.126 171.59 183.126 171.29V153.41C183.126 151.1 204.256 119.41 207.296 113.94C213.026 103.62 217.666 94.96 216.766 82.59C216.496 78.87 215.316 72.43 210.276 73.98C202.286 76.44 208.406 91.66 204.996 94.47C202.486 96.55 193.406 95.75 189.896 95.81C188.636 95.83 183.136 97.49 183.136 94.77C183.136 89.85 182.656 83.77 183.136 79.04H183.126Z" fill="#FFDC4C"/>
<path d="M472.547 35.2401L491.207 148.96L488.787 150.89L471.957 151.31L469.137 133.03L454.037 134.17L451.157 152.96L432.417 153.67L431.217 151.99L449.297 37.76C449.677 36.53 450.397 36.04 451.627 35.8C456.137 34.93 465.517 34.48 470.237 34.48C471.067 34.48 471.867 34.7501 472.537 35.2401H472.547ZM466.997 112.29L461.287 72.97L456.277 113L466.997 112.28V112.29Z" fill="#FFDC4C"/>
<path d="M290.377 124.45L299.357 125.12C299.857 125.84 299.947 140.8 299.697 142.72C298.957 148.48 292.197 144.39 290.677 146.57L289.697 165.61L270.347 166.63L270.047 148.79L269.177 147.43C263.647 147.32 257.577 148.6 252.147 148.79C249.427 148.88 245.157 149.42 243.177 147.69V126.24L266.867 48.39C267.217 47.85 267.627 47.15 268.207 46.87C269.097 46.45 286.007 45.54 287.907 45.76C288.947 45.88 289.747 45.85 290.377 46.87V124.45ZM270.357 124.81V91.56L260.327 125.51C260.307 127.08 260.157 126.48 261.087 126.27C263.367 125.75 269.857 126.45 270.367 124.81H270.357Z" fill="#FFDC4C"/>
<path d="M382.616 136.6C387.586 135.61 394.026 135.34 398.966 135.99C398.606 139.75 400.486 152.99 398.416 155.62C397.016 157.4 391.186 156.46 388.706 156.63C383.926 156.96 378.466 157.87 373.716 158.08C371.696 158.17 362.266 158.84 361.876 157.53C361.796 154.94 361.266 152.46 361.156 149.87C359.826 118.39 359.366 78.12 361.146 46.83C361.206 45.8 361.196 42.48 362.396 42.2L380.046 40.9901C380.726 41.0301 382.636 42.2101 382.636 42.5701V136.6H382.616Z" fill="#FFDC4C"/>
<path d="M426.237 152.69C426.167 153.07 425.527 153.81 425.407 154.37C423.987 153.96 421.587 155.2 420.877 155.2H406.217V39.36C411.007 38.82 416.817 38 421.567 37.89C423.247 37.85 425.197 37.55 426.237 39V152.69Z" fill="#FFDC4C"/>
<path d="M165.776 182.54C185.876 179.09 192.426 208.52 174.576 217.07C151.616 228.06 142.416 186.55 165.776 182.54Z" fill="#FFDC4C"/>
<path d="M305.396 104.07C305.706 102.96 307.496 102.39 308.576 102.25C318.226 100.96 330.816 101.19 340.776 100.85C343.366 100.76 346.866 98.78 349.006 101.22V116.24L347.816 117.2C342.876 118.22 337.896 117.71 332.926 118.04C327.706 118.39 321.676 119.33 316.506 119.49C313.166 119.6 307.986 120.16 305.396 118.39V104.09V104.07Z" fill="#FFDC4C"/>
<path d="M75.8665 336.82V295.35C83.8965 296.6 97.5465 290.76 101.456 300.86C103.896 307.17 104.436 327.78 99.1064 332.54C94.0164 337.1 82.4064 336.59 75.8564 336.82H75.8665Z" fill="#813D9A"/>
<path d="M75.8665 265.31V228.13C82.5965 227.75 97.7765 224.22 99.8665 233.09C100.436 235.53 100.926 242.89 100.936 245.65C100.966 263.27 90.3165 263.6 75.8665 265.31Z" fill="#813D9A"/>
<path d="M341.666 241.88C349.136 240.33 353.796 244.01 354.736 251.37C353.196 270.15 356.827 292.27 354.657 310.64C354.057 315.75 351.096 319.8 345.796 320.37C336.136 321.42 333.117 317.61 332.837 308.45C332.247 289.35 334.137 269.87 333.337 250.72C333.907 246.54 337.607 242.72 341.657 241.88H341.666Z" fill="#813D9A"/>
<path d="M444.657 235.42C449.547 234.74 454.407 237.76 454.767 242.85C453.577 262.43 456.567 284.28 454.857 303.59C454.157 311.5 448.287 315.63 440.507 313.59C436.707 312.59 435.317 308.48 434.887 304.91C433.327 292.06 433.887 265.39 434.747 252.08C435.217 244.74 435.747 236.65 444.657 235.41V235.42Z" fill="#813D9A"/>
<path d="M466.997 112.29L456.267 113L461.277 72.97L466.997 112.29Z" fill="#813D9A"/>
<path d="M270.356 124.81C269.846 126.45 263.356 125.75 261.076 126.27C260.146 126.48 260.296 127.08 260.316 125.51L270.346 91.56V124.81H270.356Z" fill="#813D9A"/>
</svg>
